<?xml version="1.0" encoding="utf-8"?>
<svg viewBox="6.8492 130.902 488.0035 204.2669" xmlns="http://www.w3.org/2000/svg">
  <g fill="#000000" fill-opacity="1" transform="matrix(1.3122960329055786, 0, 0, 1.2123709917068481, 4.830288887023926, 12.976117134094238)" style="">
    <g transform="translate(-7.38338, 225.159449)">
      <g>
        <path d="M 8.921875 0 L 8.921875 -127.890625 L 35.25 -127.890625 L 35.25 0 Z M 8.921875 0 "/>
      </g>
    </g>
  </g>
  <g fill="#000000" fill-opacity="1" transform="matrix(1.3122960329055786, 0, 0, 1.2123709917068481, 4.830288887023926, 12.976117134094238)" style="">
    <g transform="translate(22.796982, 225.159449)">
      <g>
        <path d="M 86.109375 -34.5 L 30.78125 -34.5 C 30.78125 -29.144531 32.515625 -25.175781 35.984375 -22.59375 C 39.453125 -20.019531 43.222656 -18.734375 47.296875 -18.734375 C 51.554688 -18.734375 54.925781 -19.300781 57.40625 -20.4375 C 59.882812 -21.582031 62.707031 -23.84375 65.875 -27.21875 L 84.921875 -17.703125 C 76.984375 -4.410156 63.796875 2.234375 45.359375 2.234375 C 33.859375 2.234375 23.992188 -1.707031 15.765625 -9.59375 C 7.535156 -17.476562 3.421875 -26.972656 3.421875 -38.078125 C 3.421875 -49.179688 7.535156 -58.695312 15.765625 -66.625 C 23.992188 -74.5625 33.859375 -78.53125 45.359375 -78.53125 C 57.453125 -78.53125 67.289062 -75.03125 74.875 -68.03125 C 82.457031 -61.039062 86.25 -51.054688 86.25 -38.078125 C 86.25 -36.285156 86.203125 -35.09375 86.109375 -34.5 Z M 31.53125 -49.078125 L 60.53125 -49.078125 C 59.9375 -53.046875 58.375 -56.09375 55.84375 -58.21875 C 53.3125 -60.351562 50.066406 -61.421875 46.109375 -61.421875 C 41.742188 -61.421875 38.269531 -60.28125 35.6875 -58 C 33.113281 -55.71875 31.726562 -52.742188 31.53125 -49.078125 Z M 31.53125 -49.078125 "/>
      </g>
    </g>
  </g>
  <g fill="#000000" fill-opacity="1" transform="matrix(1.3122960329055786, 0, 0, 1.2123709917068481, 4.830288887023926, 12.976117134094238)" style="">
    <g transform="translate(98.477056, 225.159449)">
      <g>
        <path d="M 14.125 -9.4375 C 6.988281 -17.226562 3.421875 -26.773438 3.421875 -38.078125 C 3.421875 -49.378906 6.988281 -58.945312 14.125 -66.78125 C 21.269531 -74.613281 30.34375 -78.53125 41.34375 -78.53125 C 51.457031 -78.53125 59.785156 -75.351562 66.328125 -69 L 66.328125 -76.296875 L 92.65625 -76.296875 L 92.65625 0 L 66.625 0 L 66.625 -8.625 L 66.328125 -8.625 C 59.785156 -1.382812 51.457031 2.234375 41.34375 2.234375 C 30.34375 2.234375 21.269531 -1.65625 14.125 -9.4375 Z M 36.5 -51 C 33.082031 -47.632812 31.375 -43.320312 31.375 -38.0625 C 31.375 -32.8125 33.007812 -28.523438 36.28125 -25.203125 C 39.550781 -21.878906 43.863281 -20.21875 49.21875 -20.21875 C 54.375 -20.21875 58.613281 -21.90625 61.9375 -25.28125 C 65.257812 -28.65625 66.921875 -32.921875 66.921875 -38.078125 C 66.921875 -43.328125 65.207031 -47.632812 61.78125 -51 C 58.363281 -54.375 54.175781 -56.0625 49.21875 -56.0625 C 44.164062 -56.0625 39.925781 -54.375 36.5 -51 Z M 36.5 -51 "/>
      </g>
    </g>
  </g>
  <g fill="#000000" fill-opacity="1" transform="matrix(1.3122960329055786, 0, 0, 1.2123709917068481, 4.830288887023926, 12.976117134094238)" style="">
    <g transform="translate(186.052488, 225.159449)">
      <g>
        <path d="M 8.921875 0 L 8.921875 -76.296875 L 35.25 -76.296875 L 35.25 -65.28125 L 35.546875 -65.28125 C 35.742188 -65.675781 36.066406 -66.171875 36.515625 -66.765625 C 36.960938 -67.367188 37.925781 -68.410156 39.40625 -69.890625 C 40.894531 -71.378906 42.484375 -72.71875 44.171875 -73.90625 C 45.859375 -75.101562 48.039062 -76.171875 50.71875 -77.109375 C 53.394531 -78.054688 56.117188 -78.53125 58.890625 -78.53125 C 61.765625 -78.53125 64.585938 -78.128906 67.359375 -77.328125 C 70.140625 -76.535156 72.175781 -75.742188 73.46875 -74.953125 L 75.546875 -73.765625 L 64.546875 -51.453125 C 61.273438 -54.234375 56.710938 -55.625 50.859375 -55.625 C 47.691406 -55.625 44.96875 -54.925781 42.6875 -53.53125 C 40.40625 -52.144531 38.789062 -50.460938 37.84375 -48.484375 C 36.90625 -46.503906 36.238281 -44.816406 35.84375 -43.421875 C 35.445312 -42.035156 35.25 -40.945312 35.25 -40.15625 L 35.25 0 Z M 8.921875 0 "/>
      </g>
    </g>
  </g>
  <g fill="#000000" fill-opacity="1" transform="matrix(1.3122960329055786, 0, 0, 1.2123709917068481, 4.830288887023926, 12.976117134094238)" style="">
    <g transform="translate(246.119923, 225.159449)">
      <g>
        <path d="M 8.921875 0 L 8.921875 -76.296875 L 35.25 -76.296875 L 35.25 -68.265625 L 35.546875 -68.265625 C 42.390625 -75.109375 49.675781 -78.53125 57.40625 -78.53125 C 61.175781 -78.53125 64.914062 -78.03125 68.625 -77.03125 C 72.34375 -76.039062 75.910156 -74.503906 79.328125 -72.421875 C 82.753906 -70.335938 85.535156 -67.390625 87.671875 -63.578125 C 89.804688 -59.765625 90.875 -55.328125 90.875 -50.265625 L 90.875 0 L 64.546875 0 L 64.546875 -43.125 C 64.546875 -47.09375 63.28125 -50.5625 60.75 -53.53125 C 58.21875 -56.507812 54.921875 -58 50.859375 -58 C 46.890625 -58 43.296875 -56.460938 40.078125 -53.390625 C 36.859375 -50.316406 35.25 -46.894531 35.25 -43.125 L 35.25 0 Z M 8.921875 0 "/>
      </g>
    </g>
  </g>
  <g fill="#000000" fill-opacity="1" transform="matrix(1.3122960329055786, 0, 0, 1.2123709917068481, 4.830288887023926, 12.976117134094238)" style="">
    <g transform="translate(330.424114, 225.159449)">
      <g>
        <path d="M 25.875 -31.828125 C 30.632812 -31.828125 34.675781 -30.164062 38 -26.84375 C 41.320312 -23.519531 42.984375 -19.476562 42.984375 -14.71875 C 42.984375 -10.0625 41.320312 -6.070312 38 -2.75 C 34.675781 0.570312 30.632812 2.234375 25.875 2.234375 C 21.21875 2.234375 17.226562 0.570312 13.90625 -2.75 C 10.582031 -6.070312 8.921875 -10.0625 8.921875 -14.71875 C 8.921875 -19.476562 10.582031 -23.519531 13.90625 -26.84375 C 17.226562 -30.164062 21.21875 -31.828125 25.875 -31.828125 Z M 25.875 -31.828125 "/>
      </g>
    </g>
  </g>
  <g fill="#000000" fill-opacity="1" transform="matrix(1.3122960329055786, 0, 0, 1.2123709917068481, 4.830288887023926, 12.976117134094238)" style="">
    <g transform="translate(98.767597, 265.457464)">
      <g>
        <path d="M 16.0625 -20.9375 C 16.488281 -20.9375 16.832031 -20.8125 17.09375 -20.5625 C 17.363281 -20.320312 17.5 -19.988281 17.5 -19.5625 C 17.5 -19.144531 17.363281 -18.816406 17.09375 -18.578125 C 16.832031 -18.335938 16.488281 -18.21875 16.0625 -18.21875 L 10.734375 -18.21875 L 10.734375 -1.4375 C 10.734375 -1.039062 10.585938 -0.703125 10.296875 -0.421875 C 10.015625 -0.140625 9.65625 0 9.21875 0 C 8.78125 0 8.414062 -0.140625 8.125 -0.421875 C 7.832031 -0.703125 7.6875 -1.039062 7.6875 -1.4375 L 7.6875 -18.21875 L 2.390625 -18.21875 C 1.972656 -18.21875 1.628906 -18.34375 1.359375 -18.59375 C 1.085938 -18.84375 0.953125 -19.175781 0.953125 -19.59375 C 0.953125 -20 1.085938 -20.320312 1.359375 -20.5625 C 1.628906 -20.8125 1.972656 -20.9375 2.390625 -20.9375 Z M 16.0625 -20.9375 "/>
      </g>
    </g>
  </g>
  <g fill="#000000" fill-opacity="1" transform="matrix(1.3122960329055786, 0, 0, 1.2123709917068481, 4.830288887023926, 12.976117134094238)" style="">
    <g transform="translate(136.742064, 265.457464)">
      <g>
        <path d="M 21.515625 -10.46875 C 21.515625 -8.457031 21.078125 -6.632812 20.203125 -5 C 19.335938 -3.363281 18.132812 -2.070312 16.59375 -1.125 C 15.0625 -0.175781 13.332031 0.296875 11.40625 0.296875 C 9.46875 0.296875 7.726562 -0.175781 6.1875 -1.125 C 4.65625 -2.070312 3.453125 -3.363281 2.578125 -5 C 1.710938 -6.632812 1.28125 -8.457031 1.28125 -10.46875 C 1.28125 -12.488281 1.710938 -14.316406 2.578125 -15.953125 C 3.453125 -17.585938 4.65625 -18.878906 6.1875 -19.828125 C 7.726562 -20.773438 9.46875 -21.25 11.40625 -21.25 C 13.332031 -21.25 15.0625 -20.773438 16.59375 -19.828125 C 18.132812 -18.878906 19.335938 -17.585938 20.203125 -15.953125 C 21.078125 -14.316406 21.515625 -12.488281 21.515625 -10.46875 Z M 18.4375 -10.46875 C 18.4375 -11.96875 18.132812 -13.320312 17.53125 -14.53125 C 16.9375 -15.738281 16.101562 -16.6875 15.03125 -17.375 C 13.96875 -18.0625 12.757812 -18.40625 11.40625 -18.40625 C 10.039062 -18.40625 8.820312 -18.066406 7.75 -17.390625 C 6.6875 -16.710938 5.859375 -15.769531 5.265625 -14.5625 C 4.671875 -13.351562 4.375 -11.988281 4.375 -10.46875 C 4.375 -8.976562 4.671875 -7.628906 5.265625 -6.421875 C 5.859375 -5.210938 6.6875 -4.265625 7.75 -3.578125 C 8.820312 -2.890625 10.039062 -2.546875 11.40625 -2.546875 C 12.757812 -2.546875 13.96875 -2.890625 15.03125 -3.578125 C 16.101562 -4.265625 16.9375 -5.210938 17.53125 -6.421875 C 18.132812 -7.628906 18.4375 -8.976562 18.4375 -10.46875 Z M 18.4375 -10.46875 "/>
      </g>
    </g>
  </g>
  <g fill="#000000" fill-opacity="1" transform="matrix(1.3122960329055786, 0, 0, 1.2123709917068481, 4.830288887023926, 12.976117134094238)" style="">
    <g transform="translate(179.054222, 265.457464)">
      <g>
        <path d="M 11.28125 -20.9375 C 13.15625 -20.9375 14.757812 -20.46875 16.09375 -19.53125 C 17.4375 -18.59375 18.445312 -17.332031 19.125 -15.75 C 19.800781 -14.164062 20.140625 -12.40625 20.140625 -10.46875 C 20.140625 -8.519531 19.800781 -6.75 19.125 -5.15625 C 18.445312 -3.570312 17.4375 -2.316406 16.09375 -1.390625 C 14.757812 -0.460938 13.15625 0 11.28125 0 L 3.921875 0 C 3.523438 0 3.1875 -0.140625 2.90625 -0.421875 C 2.625 -0.703125 2.484375 -1.039062 2.484375 -1.4375 L 2.484375 -19.515625 C 2.484375 -19.910156 2.625 -20.242188 2.90625 -20.515625 C 3.1875 -20.796875 3.523438 -20.9375 3.921875 -20.9375 Z M 10.984375 -2.75 C 13.015625 -2.75 14.535156 -3.472656 15.546875 -4.921875 C 16.566406 -6.367188 17.078125 -8.21875 17.078125 -10.46875 C 17.078125 -12.707031 16.5625 -14.550781 15.53125 -16 C 14.507812 -17.457031 12.992188 -18.1875 10.984375 -18.1875 L 5.453125 -18.1875 L 5.453125 -2.75 Z M 10.984375 -2.75 "/>
      </g>
    </g>
  </g>
  <g fill="#000000" fill-opacity="1" transform="matrix(1.3122960329055786, 0, 0, 1.2123709917068481, 4.830288887023926, 12.976117134094238)" style="">
    <g transform="translate(220.020201, 265.457464)">
      <g>
        <path d="M 18.578125 -1.859375 C 18.640625 -1.671875 18.671875 -1.476562 18.671875 -1.28125 C 18.671875 -0.882812 18.535156 -0.554688 18.265625 -0.296875 C 17.992188 -0.0351562 17.679688 0.09375 17.328125 0.09375 C 17.046875 0.09375 16.789062 0.0078125 16.5625 -0.15625 C 16.332031 -0.332031 16.148438 -0.570312 16.015625 -0.875 L 14.15625 -5.265625 L 4.90625 -5.265625 L 3.078125 -0.84375 C 2.984375 -0.539062 2.820312 -0.304688 2.59375 -0.140625 C 2.363281 0.015625 2.109375 0.09375 1.828125 0.09375 C 1.410156 0.09375 1.085938 -0.015625 0.859375 -0.234375 C 0.640625 -0.453125 0.53125 -0.753906 0.53125 -1.140625 C 0.53125 -1.210938 0.550781 -1.367188 0.59375 -1.609375 L 8.234375 -20.109375 C 8.367188 -20.429688 8.5625 -20.675781 8.8125 -20.84375 C 9.0625 -21.007812 9.347656 -21.070312 9.671875 -21.03125 C 9.960938 -21.03125 10.226562 -20.953125 10.46875 -20.796875 C 10.707031 -20.640625 10.878906 -20.410156 10.984375 -20.109375 Z M 6.046875 -7.984375 L 13.015625 -7.984375 L 9.515625 -16.375 Z M 6.046875 -7.984375 "/>
      </g>
    </g>
  </g>
  <g fill="#000000" fill-opacity="1" transform="matrix(1.3122960329055786, 0, 0, 1.2123709917068481, 4.830288887023926, 12.976117134094238)" style="">
    <g transform="translate(258.742537, 265.457464)">
      <g>
        <path d="M 16.875 -19.59375 C 16.875 -19.300781 16.785156 -19.003906 16.609375 -18.703125 L 10.171875 -9.640625 L 10.171875 -1.4375 C 10.171875 -1.039062 10.035156 -0.703125 9.765625 -0.421875 C 9.492188 -0.140625 9.171875 0 8.796875 0 C 8.398438 0 8.0625 -0.140625 7.78125 -0.421875 C 7.5 -0.703125 7.359375 -1.039062 7.359375 -1.4375 L 7.359375 -9.875 L 0.953125 -18.515625 C 0.671875 -18.878906 0.53125 -19.238281 0.53125 -19.59375 C 0.53125 -20 0.691406 -20.335938 1.015625 -20.609375 C 1.335938 -20.890625 1.6875 -21.03125 2.0625 -21.03125 C 2.519531 -21.03125 2.910156 -20.8125 3.234375 -20.375 L 8.859375 -12.59375 L 14.265625 -20.34375 C 14.585938 -20.800781 14.988281 -21.03125 15.46875 -21.03125 C 15.84375 -21.03125 16.171875 -20.890625 16.453125 -20.609375 C 16.734375 -20.335938 16.875 -20 16.875 -19.59375 Z M 16.875 -19.59375 "/>
      </g>
    </g>
  </g>
</svg>